<svg width="90" height="25" viewBox="0 0 90 25" fill="none" xmlns="http://www.w3.org/2000/svg">
<path d="M3.28812 10.88H0.920123V7.2H3.28812V5.216C3.28812 3.59467 3.71479 2.37867 4.56812 1.568C5.42146 0.735999 6.66946 0.32 8.31212 0.32H11.3841V4H8.02412V7.2H11.3841V10.88H8.02412V24H3.28812V10.88ZM25.7946 24C24.9413 24 24.2266 23.7333 23.6506 23.2C23.096 22.6667 22.744 21.952 22.5946 21.056H22.4026C22.1466 22.144 21.5813 22.976 20.7066 23.552C19.832 24.1067 18.7546 24.384 17.4746 24.384C15.7893 24.384 14.4986 23.936 13.6026 23.04C12.7066 22.144 12.2586 20.96 12.2586 19.488C12.2586 17.7173 12.8986 16.4053 14.1786 15.552C15.48 14.6773 17.24 14.24 19.4586 14.24H22.1146V13.184C22.1146 12.3733 21.9013 11.7333 21.4746 11.264C21.048 10.7733 20.3333 10.528 19.3306 10.528C18.392 10.528 17.6453 10.7307 17.0906 11.136C16.536 11.5413 16.0773 12 15.7146 12.512L12.8986 10.016C13.5813 9.01333 14.4346 8.23467 15.4586 7.68C16.504 7.104 17.912 6.816 19.6826 6.816C22.072 6.816 23.864 7.33867 25.0586 8.384C26.2533 9.42933 26.8506 10.9547 26.8506 12.96V20.32H28.4186V24H25.7946ZM19.2346 21.088C20.024 21.088 20.696 20.9173 21.2506 20.576C21.8266 20.2347 22.1146 19.68 22.1146 18.912V16.928H19.8106C17.9546 16.928 17.0266 17.5573 17.0266 18.816V19.296C17.0266 19.9147 17.2186 20.3733 17.6026 20.672C17.9866 20.9493 18.5306 21.088 19.2346 21.088ZM36.6534 24.384C35.032 24.384 33.6667 24.128 32.5574 23.616C31.448 23.0827 30.456 22.336 29.5814 21.376L32.3654 18.56C32.9627 19.2213 33.624 19.744 34.3494 20.128C35.0747 20.512 35.896 20.704 36.8134 20.704C37.752 20.704 38.4027 20.5653 38.7654 20.288C39.128 19.9893 39.3094 19.5947 39.3094 19.104C39.3094 18.3147 38.744 17.8453 37.6134 17.696L35.7894 17.472C32.0134 17.0027 30.1254 15.2747 30.1254 12.288C30.1254 11.4773 30.2747 10.7413 30.5734 10.08C30.8934 9.39733 31.3307 8.82133 31.8854 8.352C32.4614 7.86133 33.144 7.488 33.9334 7.232C34.744 6.95467 35.6507 6.816 36.6534 6.816C37.528 6.816 38.296 6.88 38.9574 7.008C39.64 7.11467 40.2374 7.28533 40.7494 7.52C41.2827 7.73333 41.7627 8.01067 42.1894 8.352C42.6374 8.672 43.0747 9.03467 43.5014 9.44L40.7814 12.224C40.248 11.6907 39.64 11.2747 38.9574 10.976C38.296 10.656 37.6134 10.496 36.9094 10.496C36.0987 10.496 35.5227 10.624 35.1814 10.88C34.84 11.136 34.6694 11.4773 34.6694 11.904C34.6694 12.352 34.7867 12.704 35.0214 12.96C35.2774 13.1947 35.7467 13.3653 36.4294 13.472L38.3174 13.728C42.008 14.2187 43.8534 15.904 43.8534 18.784C43.8534 19.5947 43.6827 20.3413 43.3414 21.024C43 21.7067 42.5094 22.304 41.8694 22.816C41.2507 23.3067 40.4934 23.6907 39.5974 23.968C38.7227 24.2453 37.7414 24.384 36.6534 24.384ZM52.0804 24C50.4377 24 49.1897 23.584 48.3364 22.752C47.5044 21.92 47.0884 20.704 47.0884 19.104V10.88H44.7204V7.2H45.9044C46.5444 7.2 46.9817 7.05067 47.2164 6.752C47.451 6.432 47.5684 5.984 47.5684 5.408V2.656H51.8244V7.2H55.1524V10.88H51.8244V20.32H54.8964V24H52.0804ZM60.5544 24.352C59.5944 24.352 58.8797 24.1173 58.4104 23.648C57.9624 23.1573 57.7384 22.5387 57.7384 21.792V21.152C57.7384 20.4053 57.9624 19.7973 58.4104 19.328C58.8797 18.8373 59.5944 18.592 60.5544 18.592C61.5144 18.592 62.2184 18.8373 62.6664 19.328C63.1357 19.7973 63.3704 20.4053 63.3704 21.152V21.792C63.3704 22.5387 63.1357 23.1573 62.6664 23.648C62.2184 24.1173 61.5144 24.352 60.5544 24.352ZM79.6409 24C78.7875 24 78.0729 23.7333 77.4969 23.2C76.9422 22.6667 76.5902 21.952 76.4409 21.056H76.2489C75.9929 22.144 75.4275 22.976 74.5529 23.552C73.6782 24.1067 72.6009 24.384 71.3209 24.384C69.6355 24.384 68.3449 23.936 67.4489 23.04C66.5529 22.144 66.1049 20.96 66.1049 19.488C66.1049 17.7173 66.7449 16.4053 68.0249 15.552C69.3262 14.6773 71.0862 14.24 73.3049 14.24H75.9609V13.184C75.9609 12.3733 75.7475 11.7333 75.3209 11.264C74.8942 10.7733 74.1795 10.528 73.1769 10.528C72.2382 10.528 71.4915 10.7307 70.9369 11.136C70.3822 11.5413 69.9235 12 69.5609 12.512L66.7449 10.016C67.4275 9.01333 68.2809 8.23467 69.3049 7.68C70.3502 7.104 71.7582 6.816 73.5289 6.816C75.9182 6.816 77.7102 7.33867 78.9049 8.384C80.0995 9.42933 80.6969 10.9547 80.6969 12.96V20.32H82.2649V24H79.6409ZM73.0809 21.088C73.8702 21.088 74.5422 20.9173 75.0969 20.576C75.6729 20.2347 75.9609 19.68 75.9609 18.912V16.928H73.6569C71.8009 16.928 70.8729 17.5573 70.8729 18.816V19.296C70.8729 19.9147 71.0649 20.3733 71.4489 20.672C71.8329 20.9493 72.3769 21.088 73.0809 21.088ZM87.1716 5.408C86.2116 5.408 85.5076 5.19467 85.0596 4.768C84.633 4.32 84.4196 3.75467 84.4196 3.072V2.368C84.4196 1.68533 84.633 1.13067 85.0596 0.703999C85.5076 0.255999 86.2116 0.0319996 87.1716 0.0319996C88.1316 0.0319996 88.825 0.255999 89.2516 0.703999C89.6996 1.13067 89.9236 1.68533 89.9236 2.368V3.072C89.9236 3.75467 89.6996 4.32 89.2516 4.768C88.825 5.19467 88.1316 5.408 87.1716 5.408ZM84.8036 7.2H89.5396V24H84.8036V7.2Z" fill="white"/>
</svg>
