<svg width="374" height="220" viewBox="0 0 374 220" fill="none" xmlns="http://www.w3.org/2000/svg">
<path d="M303.251 166.481C243.118 218.428 172.451 235.175 145.426 203.881C124.531 179.708 135.798 133.921 169.745 90.3999C149.798 120.575 144.319 150.453 158.505 168.201C180.266 195.4 240.039 183.748 292.011 142.175C343.986 100.588 368.465 44.8412 346.706 17.6412C335.398 3.50789 313.811 -0.132111 288.398 5.46789C320.478 -4.10544 348.372 -1.37344 363.184 15.7612C390.212 47.0546 363.386 114.535 303.251 166.481Z" fill="white"/>
<path d="M6.99867 87.8145V49.7731H0V39.2758H6.99867V34.2518C6.99867 28.6598 8.67333 24.3678 12.024 21.3771C15.372 18.3865 20.112 16.8918 26.244 16.8918C27.38 16.8918 28.5453 16.9731 29.7427 17.1371C30.9387 17.3025 32.2693 17.5345 33.736 17.8331L32.6133 29.0038C31.8053 28.8531 31.0813 28.7411 30.4373 28.6665C29.7947 28.5918 29.0093 28.5545 28.0827 28.5545C26.1987 28.5545 24.748 29.0478 23.732 30.0345C22.7147 31.0211 22.2053 32.4278 22.2053 34.2518V39.2758H31.6267V49.7731H22.2053V87.8145H6.99867Z" fill="white"/>
<path d="M54.9985 77.9448C56.4932 77.9448 57.8692 77.6462 59.1265 77.0475C60.3812 76.4502 61.3985 75.6728 62.1759 74.7155V67.1342H56.7932C54.3999 67.1342 52.6572 67.7168 51.5665 68.8835C50.4745 70.0502 49.9292 71.5302 49.9292 73.3248C49.9292 74.7008 50.4012 75.8142 51.3425 76.6675C52.2852 77.5195 53.5025 77.9448 54.9985 77.9448ZM65.0025 87.7702C64.5825 86.9928 64.2012 86.1262 63.8585 85.1675C63.5145 84.2115 63.2225 83.2248 62.9825 82.2062C61.5479 84.2115 59.8132 85.8048 57.7799 86.9848C55.7465 88.1662 53.2785 88.7568 50.3772 88.7568C45.7719 88.7568 42.0265 87.4262 39.1399 84.7635C36.2532 82.1022 34.8105 78.5582 34.8105 74.1328C34.8105 69.3168 36.6132 65.6022 40.2172 62.9848C43.8199 60.3675 49.3012 59.0595 56.6585 59.0595H62.1759V55.6048C62.1759 53.5408 61.6905 51.9568 60.7185 50.8502C59.7465 49.7448 58.2439 49.1902 56.2092 49.1902C54.4745 49.1902 53.1825 49.6008 52.3292 50.4235C51.4759 51.2475 51.0505 52.5262 51.0505 54.2595L36.3812 54.2142L36.2919 53.9448C36.0812 49.5195 37.9212 45.8182 41.8092 42.8422C45.6959 39.8662 50.8412 38.3782 57.2425 38.3782C63.2225 38.3782 68.0759 39.8742 71.7985 42.8648C75.5225 45.8568 77.3839 50.1328 77.3839 55.6955V73.9982C77.3839 76.5995 77.5999 79.0075 78.0332 81.2195C78.4679 83.4342 79.1185 85.6328 79.9852 87.8142L65.0025 87.7702Z" fill="white"/>
<path d="M111.118 74.1765C111.118 72.9818 110.437 71.9125 109.077 70.9698C107.716 70.0285 105.241 69.1831 101.652 68.4351C95.9998 67.3285 91.7385 65.6085 88.8678 63.2765C85.9958 60.9431 84.5611 57.7591 84.5611 53.7205C84.5611 49.4445 86.3558 45.8178 89.9438 42.8418C93.5331 39.8671 98.3918 38.3778 104.524 38.3778C110.982 38.3778 116.126 39.8218 119.956 42.7072C123.782 45.5938 125.608 49.3245 125.428 53.9005L125.338 54.1698H110.625C110.625 52.2565 110.138 50.8058 109.166 49.8178C108.194 48.8312 106.632 48.3378 104.48 48.3378C102.893 48.3378 101.562 48.7711 100.485 49.6391C99.4105 50.5058 98.8705 51.6125 98.8705 52.9578C98.8705 54.2445 99.4905 55.3351 100.733 56.2325C101.974 57.1311 104.48 57.9378 108.248 58.6551C114.168 59.8218 118.557 61.5645 121.413 63.8818C124.269 66.2005 125.698 69.4818 125.698 73.7285C125.698 78.0951 123.76 81.6911 119.888 84.5178C116.014 87.3431 110.893 88.7578 104.524 88.7578C97.9145 88.7578 92.6878 87.0818 88.8451 83.7325C85.0011 80.3831 83.1705 76.6445 83.3505 72.5178L83.4385 72.2485H97.1665C97.2265 74.5511 97.9225 76.2111 99.2531 77.2271C100.584 78.2445 102.476 78.7538 104.926 78.7538C106.961 78.7538 108.501 78.3565 109.548 77.5645C110.593 76.7711 111.118 75.6431 111.118 74.1765Z" fill="white"/>
<path d="M150.775 27.2091V39.2757H158.984V49.7731H150.775V72.0237C150.775 73.7584 151.127 75.0078 151.829 75.7704C152.531 76.5318 153.481 76.9131 154.679 76.9131C155.636 76.9131 156.389 76.8837 156.944 76.8237C157.496 76.7637 158.207 76.6438 159.075 76.4651L160.151 87.6811C158.475 88.0691 156.967 88.3464 155.62 88.5104C154.275 88.6744 152.689 88.7571 150.864 88.7571C145.869 88.7571 142.087 87.4264 139.516 84.7637C136.943 82.1024 135.657 77.8864 135.657 72.1144V49.7731H128.839V39.2757H135.657V27.2091H150.775Z" fill="white"/>
<path d="M211.784 77.9448C213.279 77.9448 214.655 77.6462 215.912 77.0475C217.167 76.4502 218.184 75.6728 218.961 74.7155V67.1342H213.579C211.185 67.1342 209.443 67.7168 208.352 68.8835C207.26 70.0502 206.715 71.5302 206.715 73.3248C206.715 74.7008 207.187 75.8142 208.128 76.6675C209.071 77.5195 210.288 77.9448 211.784 77.9448ZM221.788 87.7702C221.368 86.9928 220.987 86.1262 220.644 85.1675C220.3 84.2115 220.008 83.2248 219.768 82.2062C218.333 84.2115 216.599 85.8048 214.565 86.9848C212.532 88.1662 210.064 88.7568 207.163 88.7568C202.557 88.7568 198.812 87.4262 195.925 84.7635C193.039 82.1022 191.596 78.5582 191.596 74.1328C191.596 69.3168 193.399 65.6022 197.003 62.9848C200.605 60.3675 206.087 59.0595 213.444 59.0595H218.961V55.6048C218.961 53.5408 218.476 51.9568 217.504 50.8502C216.532 49.7448 215.029 49.1902 212.995 49.1902C211.26 49.1902 209.968 49.6008 209.115 50.4235C208.261 51.2475 207.836 52.5262 207.836 54.2595L193.167 54.2142L193.077 53.9448C192.867 49.5195 194.707 45.8182 198.595 42.8422C202.481 39.8662 207.627 38.3782 214.028 38.3782C220.008 38.3782 224.861 39.8742 228.584 42.8648C232.308 45.8568 234.169 50.1328 234.169 55.6955V73.9982C234.169 76.5995 234.385 79.0075 234.819 81.2195C235.253 83.4342 235.904 85.6328 236.771 87.8142L221.788 87.7702Z" fill="white"/>
<path d="M258.485 87.8147H243.277V39.276H258.485V87.8147Z" fill="white"/>
<path d="M183.365 80.5958C183.365 84.7331 180.01 88.0864 175.874 88.0864C171.737 88.0864 168.383 84.7331 168.383 80.5958C168.383 76.4571 171.737 73.1051 175.874 73.1051C180.01 73.1051 183.365 76.4571 183.365 80.5958Z" fill="white"/>
<path d="M258.371 28.8809C258.371 33.0182 255.016 36.3716 250.88 36.3716C246.743 36.3716 243.39 33.0182 243.39 28.8809C243.39 24.7436 246.743 21.3902 250.88 21.3902C255.016 21.3902 258.371 24.7436 258.371 28.8809Z" fill="white"/>
</svg>
