<svg width="45" height="51" viewBox="0 0 45 51" fill="none" xmlns="http://www.w3.org/2000/svg">
<g clip-path="url(#clip0_39_138)">
<path d="M2.61827 26.8354C2.61827 28.3935 2.49363 28.9009 2.17312 29.2748C1.81641 29.5961 1.35332 29.7737 0.873291 29.7734L0.997933 30.6637C1.74213 30.6738 2.46424 30.4109 3.02781 29.9248C3.33104 29.555 3.55669 29.1279 3.69129 28.669C3.8259 28.2102 3.8667 27.7289 3.81127 27.2539V21.3601H2.61827V26.7998V26.8354Z" fill="#33373F"/>
<path d="M11.5153 26.1332C11.5153 26.8009 11.5153 27.3974 11.5688 27.9138H10.5093L10.4381 26.8543C10.2165 27.2292 9.89958 27.5387 9.51959 27.7514C9.13959 27.964 8.71006 28.0723 8.27466 28.0651C7.24192 28.0651 6.01331 27.5043 6.01331 25.2162V21.4146H7.20631V24.9758C7.20631 26.2133 7.58914 27.0413 8.6664 27.0413C8.88803 27.0437 9.1079 27.0018 9.31313 26.9181C9.51836 26.8344 9.7048 26.7105 9.86153 26.5538C10.0182 26.3971 10.1421 26.2106 10.2258 26.0054C10.3095 25.8002 10.3514 25.5803 10.3491 25.3586V21.3701H11.542V26.0976L11.5153 26.1332Z" fill="#33373F"/>
<path d="M13.7767 23.5326C13.7767 22.7047 13.7767 22.028 13.7233 21.4137H14.7916L14.845 22.5266C15.0831 22.1245 15.4257 21.7946 15.8365 21.572C16.2473 21.3493 16.7108 21.2423 17.1776 21.2624C18.7623 21.2624 19.9553 22.5889 19.9553 24.5654C19.9553 26.898 18.522 28.0554 16.9728 28.0554C16.5764 28.0731 16.182 27.9881 15.828 27.8087C15.4739 27.6294 15.1721 27.3617 14.9519 27.0315V30.5927H13.7767V23.5594V23.5326ZM14.9519 25.2687C14.9551 25.4303 14.973 25.5912 15.0053 25.7495C15.1063 26.1448 15.3363 26.4951 15.6587 26.7451C15.9812 26.995 16.3779 27.1303 16.7859 27.1294C18.0412 27.1294 18.7802 26.1056 18.7802 24.6188C18.7802 23.319 18.0857 22.2061 16.8304 22.2061C16.3336 22.2468 15.8687 22.4673 15.5229 22.8262C15.1771 23.1851 14.9741 23.6579 14.9519 24.1559V25.2687Z" fill="#33373F"/>
<path d="M22.0809 21.4077L23.5143 25.2449C23.6657 25.6722 23.8259 26.1886 23.9328 26.5714C24.0574 26.1797 24.1909 25.6811 24.3512 25.2182L25.651 21.4077H26.9064L25.1258 26.0372C24.2355 28.263 23.6924 29.4115 22.8733 30.1059C22.4608 30.4827 21.9578 30.7465 21.4132 30.8716L21.1194 29.8744C21.5002 29.7493 21.8537 29.5529 22.1611 29.2957C22.5954 28.9418 22.9401 28.4903 23.1671 27.9781C23.2157 27.8894 23.2488 27.793 23.265 27.6932C23.2549 27.5858 23.2279 27.4806 23.1849 27.3816L20.7633 21.3899H22.0631L22.0809 21.4077Z" fill="#33373F"/>
<path d="M30.0734 19.54V21.4097H31.7828V22.3H30.0734V25.8077C30.0734 26.609 30.3049 27.0719 30.9637 27.0719C31.1977 27.0758 31.4312 27.0488 31.6582 26.9918L31.7116 27.8821C31.3712 28 31.0121 28.0543 30.6521 28.0424C30.4137 28.0573 30.1749 28.0205 29.9521 27.9344C29.7293 27.8483 29.5277 27.7151 29.3612 27.5438C28.9986 27.0588 28.8331 26.4543 28.8982 25.8522V22.2911H27.8833V21.4008H28.916V19.816L30.0734 19.54Z" fill="#33373F"/>
<path d="M33.9804 24.869C33.9562 25.171 33.9979 25.4745 34.1026 25.7588C34.2072 26.043 34.3723 26.3012 34.5865 26.5154C34.8007 26.7295 35.0588 26.8947 35.3431 26.9993C35.6273 27.104 35.9309 27.1456 36.2328 27.1215C36.8436 27.1351 37.4503 27.0199 38.0134 26.7832L38.2182 27.6735C37.5272 27.9581 36.7841 28.0946 36.037 28.0741C35.6014 28.1039 35.1646 28.0392 34.7564 27.8843C34.3483 27.7294 33.9784 27.4881 33.6723 27.1769C33.3662 26.8657 33.1309 26.4919 32.9828 26.0813C32.8347 25.6706 32.7771 25.2328 32.8141 24.7978C32.8141 22.8392 33.9804 21.29 35.8856 21.29C38.0223 21.29 38.5565 23.1597 38.5565 24.3527C38.5679 24.5365 38.5679 24.7208 38.5565 24.9046H33.9537L33.9804 24.869ZM37.4704 23.9787C37.5047 23.7407 37.4877 23.4981 37.4203 23.2672C37.353 23.0363 37.2369 22.8226 37.08 22.6403C36.9231 22.4581 36.7289 22.3116 36.5106 22.2108C36.2923 22.1099 36.0549 22.057 35.8144 22.0557C35.3252 22.0911 34.8669 22.3079 34.5293 22.6637C34.1917 23.0194 33.9991 23.4884 33.9893 23.9787H37.4704Z" fill="#33373F"/>
<path d="M40.3667 23.4323C40.3667 22.6666 40.3667 22.0078 40.3132 21.4024H41.3816V22.6755H41.435C41.5471 22.2826 41.7788 21.9343 42.0979 21.679C42.417 21.4238 42.8076 21.2742 43.2156 21.251C43.3279 21.2363 43.4416 21.2363 43.5539 21.251V22.3639C43.4179 22.3482 43.2804 22.3482 43.1444 22.3639C42.7402 22.3796 42.3556 22.5418 42.0623 22.8203C41.7691 23.0989 41.5872 23.4746 41.5507 23.8774C41.5175 24.0596 41.4996 24.2442 41.4973 24.4294V27.8927H40.3221V23.4412L40.3667 23.4323Z" fill="#33373F"/>
<path d="M39.8438 3.52559C39.8804 4.1237 39.7381 4.71915 39.435 5.23609C39.132 5.75304 38.6819 6.16807 38.1422 6.42833C37.6024 6.68858 36.9974 6.78227 36.4042 6.69747C35.811 6.61266 35.2565 6.3532 34.8113 5.95213C34.3661 5.55107 34.0503 5.02655 33.9043 4.4454C33.7582 3.86425 33.7884 3.25277 33.9911 2.68887C34.1938 2.12497 34.5598 1.63416 35.0424 1.27898C35.525 0.923794 36.1024 0.72031 36.7011 0.694447C37.0936 0.672848 37.4865 0.729056 37.8572 0.859837C38.2279 0.990618 38.5691 1.19339 38.8612 1.4565C39.1532 1.71961 39.3904 2.03786 39.5591 2.39295C39.7277 2.74804 39.8245 3.13297 39.8438 3.52559Z" fill="#767677"/>
<path d="M22.2394 38.3924C14.2268 38.3924 7.18452 35.5167 3.54321 31.27C4.95605 35.0904 7.50536 38.3863 10.848 40.7141C14.1906 43.0418 18.1662 44.2896 22.2394 44.2896C26.3127 44.2896 30.2882 43.0418 33.6309 40.7141C36.9735 38.3863 39.5228 35.0904 40.9357 31.27C37.3033 35.5167 30.2877 38.3924 22.2394 38.3924Z" fill="#F37726"/>
<path d="M22.2394 10.7771C30.2521 10.7771 37.2944 13.6528 40.9357 17.8995C39.5228 14.0791 36.9735 10.7832 33.6309 8.45547C30.2882 6.12773 26.3127 4.87988 22.2394 4.87988C18.1662 4.87988 14.1906 6.12773 10.848 8.45547C7.50536 10.7832 4.95605 14.0791 3.54321 17.8995C7.18452 13.6439 14.1912 10.7771 22.2394 10.7771Z" fill="#F37726"/>
<path d="M11.209 46.6566C11.256 47.41 11.0777 48.1603 10.6968 48.8119C10.3158 49.4636 9.74947 49.9871 9.06994 50.3157C8.39041 50.6443 7.62843 50.7632 6.88109 50.6572C6.13374 50.5513 5.43486 50.2252 4.87349 49.7206C4.31212 49.216 3.91368 48.5557 3.72892 47.8238C3.54416 47.092 3.58146 46.3217 3.83606 45.6111C4.09066 44.9005 4.55103 44.2818 5.15852 43.8338C5.76602 43.3858 6.49313 43.1287 7.24722 43.0955C7.74121 43.069 8.23557 43.1402 8.70206 43.3049C9.16854 43.4696 9.59801 43.7246 9.96592 44.0553C10.3338 44.386 10.633 44.7859 10.8463 45.2323C11.0596 45.6786 11.1829 46.1626 11.209 46.6566Z" fill="#9E9E9E"/>
<path d="M4.45386 9.80936C4.02211 9.82128 3.59647 9.70528 3.23047 9.47595C2.86447 9.24661 2.57445 8.91417 2.39689 8.52045C2.21932 8.12672 2.16214 7.68928 2.23253 7.26314C2.30292 6.837 2.49773 6.44118 2.79248 6.12547C3.08723 5.80976 3.46875 5.58825 3.88906 5.48879C4.30936 5.38933 4.74969 5.41637 5.15468 5.5665C5.55966 5.71664 5.91121 5.98317 6.16511 6.33257C6.41902 6.68197 6.56395 7.09865 6.58167 7.5302C6.59854 8.11373 6.38456 8.68037 5.98618 9.10708C5.5878 9.5338 5.03717 9.78616 4.45386 9.80936Z" fill="#616262"/>
</g>
<defs>
<clipPath id="clip0_39_138">
<rect width="44" height="51" fill="white" transform="translate(0.333252)"/>
</clipPath>
</defs>
</svg>

